# xmcd
#
# Track frame offsets: 
#        150
#        24405
#        38675
#        50390
#        66165
#        89887
#        108225
#        126100
#        144627
#        160800
#        179607
#        194802
#        212252
#        227267
#        237780
#        266842
#        292512
#
# Disc length: 4175 seconds
#
# Revision: 7
# Processed by: cddbd v1.5.2PL0 Copyright (c) Steve Scherf et al.
# Submitted via: ExactAudioCopy v0.95b4
#
DISCID=ec104d11
DTITLE=The Meters - Funkify Your Life: The Meters Anthology (disc2)
DYEAR=1995
DGENRE=Funk
TTITLE0=Stay Away
TTITLE1=Soul Island
TTITLE2=Do The Dirt
TTITLE3=Cabbage Alley
TTITLE4=People Say
TTITLE5=Hey Pocky A-Way
TTITLE6=Africa
TTITLE7=Fire On The Bayou
TTITLE8=Talkin' 'Bout New Orleans
TTITLE9=They All Ask'd For You
TTITLE10=Running Fast (Single Version)
TTITLE11=(Doodle Loop) The World Is A Little Bit Under The Weather
TTITLE12=Trick Bag
TTITLE13=Hang 'Em High
TTITLE14=Be My Lady
TTITLE15=Funkify Your Life
TTITLE16=Give It What You Can
EXTD=
EXTT0=
EXTT1=
EXTT2=
EXTT3=
EXTT4=
EXTT5=
EXTT6=
EXTT7=
EXTT8=
EXTT9=
EXTT10=
EXTT11=
EXTT12=
EXTT13=
EXTT14=
EXTT15=
EXTT16=
PLAYORDER=
